/* XPM */
static char *c5b647a15f7b4117afc85cb82da831cbCfg8QAwccEYSfjLB[] = {
/* columns rows colors chars-per-pixel */
"128 32 229 2 ",
"   c None",
".  c #1D3046",
"X  c #1E3147",
"o  c #1E3148",
"O  c #1F3248",
"+  c #1E384E",
"@  c #2A2F49",
"#  c #382F4F",
"$  c #3A2F4E",
"%  c #223349",
"&  c #22324A",
"*  c #22334A",
"=  c #253149",
"-  c #273049",
";  c #273149",
":  c #243249",
">  c #253249",
",  c #26354D",
"<  c #293049",
"1  c #2E304B",
"2  c #2B324D",
"3  c #273751",
"4  c #213A51",
"5  c #223C52",
"6  c #223F56",
"7  c #243E56",
"8  c #2A3A54",
"9  c #2D3E59",
"0  c #313755",
"q  c #3C3355",
"w  c #3B375A",
"e  c #353F5D",
"r  c #463057",
"t  c #40365C",
"y  c #483059",
"u  c #4C305B",
"i  c #51305E",
"p  c #413C60",
"a  c #593160",
"s  c #583161",
"d  c #5D3164",
"f  c #5D3467",
"g  c #5E3A6F",
"h  c #5A3E70",
"j  c #5D3F72",
"k  c #7C2B66",
"l  c #702F6A",
"z  c #712F6B",
"x  c #772E6B",
"c  c #792E6F",
"v  c #7E2D6F",
"b  c #603166",
"n  c #633266",
"m  c #623068",
"M  c #653169",
"N  c #66316A",
"B  c #683168",
"V  c #6B316B",
"C  c #6C3068",
"Z  c #6D3069",
"A  c #6F316F",
"S  c #72306E",
"D  c #762F70",
"F  c #772F71",
"G  c #7E2D70",
"H  c #7F2F72",
"J  c #6B3873",
"K  c #743070",
"L  c #753B7A",
"P  c #2A425D",
"I  c #2F415D",
"U  c #31415F",
"Y  c #2E4460",
"T  c #304462",
"R  c #344A6A",
"E  c #374C6D",
"W  c #394B6B",
"Q  c #3C4D6F",
"!  c #40476A",
"~  c #43496F",
"^  c #4E4571",
"/  c #4C4670",
"(  c #4A4877",
")  c #4C4778",
"_  c #95266D",
"`  c #812D73",
"'  c #822C72",
"]  c #842C71",
"[  c #852C73",
"{  c #8A2B73",
"}  c #8C2A73",
"|  c #8E2A73",
" . c #972774",
".. c #9B2671",
"X. c #982773",
"o. c #9B2775",
"O. c #9A2776",
"+. c #9D2675",
"@. c #9F2677",
"#. c #902970",
"$. c #922871",
"%. c #902973",
"&. c #902975",
"*. c #932976",
"=. c #952E79",
"-. c #9F2A78",
";. c #82377A",
":. c #A32576",
">. c #A52474",
",. c #AB2375",
"<. c #AF2375",
"1. c #AC2378",
"2. c #AC2379",
"3. c #AF2378",
"4. c #AB2479",
"5. c #AB267A",
"6. c #AC2479",
"7. c #B02376",
"8. c #BD2176",
"9. c #B8217B",
"0. c #B9217B",
"q. c #BD207B",
"w. c #BF207A",
"e. c #BF207C",
"r. c #C81F7B",
"t. c #D11C7C",
"y. c #D11D7D",
"u. c #DC187D",
"i. c #E9127D",
"p. c #6A488D",
"a. c #714984",
"s. c #7C498D",
"d. c #883880",
"f. c #8F3C86",
"g. c #D71C81",
"h. c #DF1983",
"j. c #DF1C86",
"k. c #E91483",
"l. c #E81583",
"z. c #E91585",
"x. c #EC1485",
"c. c #F21282",
"v. c #F41081",
"b. c #F61083",
"n. c #F01586",
"m. c #FB1185",
"M. c #F41488",
"N. c #F61488",
"B. c #FA1489",
"V. c #FC1589",
"C. c #FF1588",
"Z. c #FC168B",
"A. c #FF168B",
"S. c #FF1A8B",
"D. c #FF188C",
"F. c #FF1C8C",
"G. c #FF1F8D",
"H. c #FE1F8F",
"J. c #C42681",
"K. c #DD2692",
"L. c #D22B94",
"P. c #CC3098",
"I. c #CD329C",
"U. c #D0349E",
"Y. c #FF208E",
"T. c #E22290",
"R. c #FC2190",
"E. c #FF2391",
"W. c #FC2491",
"Q. c #FE2491",
"!. c #FC2592",
"~. c #FC2994",
"^. c #FD2A95",
"/. c #F43197",
"(. c #F9379A",
"). c #F83B9B",
"_. c #C23BA3",
"`. c #DE3EA4",
"'. c #974390",
"]. c #9F4798",
"[. c #A4459B",
"{. c #A749A4",
"}. c #AF49AA",
"|. c #AF4EB7",
" X c #BD4CB3",
".X c #F7409E",
"XX c #F5469F",
"oX c #F6479F",
"OX c #F8409F",
"+X c #C242AA",
"@X c #C246AE",
"#X c #D548AC",
"$X c #DD4BA8",
"%X c #C65CBA",
"&X c #E747A2",
"*X c #E043A4",
"=X c #E64CA3",
"-X c #F845A0",
";X c #F048A1",
":X c #F04BA3",
">X c #F54AA2",
",X c #F64DA2",
"<X c #F54FA4",
"1X c #F352A4",
"2X c #F551A5",
"3X c #F550A6",
"4X c #F454A7",
"5X c #F457A7",
"6X c #F455A8",
"7X c #F456A8",
"8X c #F359A9",
"9X c #F15FAA",
"0X c #F25EAC",
"qX c #C96FBE",
"wX c #D77BBA",
"eX c #F061AC",
"rX c #F161AD",
"tX c #F260AC",
"yX c #F163AC",
"uX c #F162AD",
"iX c #F163AE",
"pX c #F066AF",
"aX c #EF68B0",
"sX c #F069B0",
"dX c #EC73B3",
"fX c #EA7FB9",
"gX c #E982BA",
"hX c #C786C5",
"jX c #DD8FC0",
/* pixels */
"                                                                                                                                                                                                                                                                ",
"                                                                                                                                                                                                                                                                ",
"                                                                                                                                                                                                                                                                ",
"                                                                                                                                                                                                                                                                ",
"                                                                                                                                                                                                                                                                ",
"                                                                                                                                                                                                                                                                ",
"                              L.(                                                                                                                                                                                                                               ",
"                              w.0                                                         s.K u * w                                                                                                                                                             ",
"                            +X2XB                                                             d T                                                                                                                                                               ",
"                            ;XiXS T                                                           ;.W                                                                                                                                                               ",
"                            7X7XS +                                                           7.9                                                                                                                                                               ",
"                          `.iX2XC . W                                                         u.,                                                                                                                                                               ",
"                        &XB.eX7XC . > t                                                       m.<                                                             @                                                                   <                             ",
"                        3.+.eX1X$ . * N                                                     {.Y.:                                                             o k                                                               q 6                             ",
"                            2XoX% .                                                         K.S.: E                                                       }.J.l.^.fXdXwXqX                                                  hX-X_ x                             ",
"                            OXv.O P                                                         W.i.% P                                         ].    '.T.R.~.A.x.z.z.z.N.Z.W..XsXaX X                                jXgXsXeX7X-X(.W.A.D.W.$X                      ",
"                            A.c.O I                                                         >XA.% 5                                         / y s c ` [ ` F K A M b n b Z S ..r.N./.                          *Xg.y.8.,.>.O.&.} #.*.@.5.0.0.3.*.H ,.            ",
"                            P.Y.%                                                           7X1X: .                                         g ~           a.f.-.3.6.` #.O.=.[.                                |.I.j.w.[ m i G #.X.X.} G J h /   ! # )           ",
"                              G.>                                                       l.0.tX,Xr . : M                                                             U.:Xj                                             t x.z.p.                                  ",
"                              v.<                                                       #XY.sX4Xz . :                                                                                                                     %X                                    ",
"                              y.3                                                         @X0X<XZ .                                                                                                                                                             ",
"                              >.U                                                           4XtXz 4                                                                                                                                                             ",
"                              L Q                                                           =XiXS R                                                                                                                                                             ",
"                              d 8                                                             ).i                                                                                                                                                               ",
"                          d.m q % 1                                                           3.U                                                                                                                                                               ",
"                                                                                              _.                                                                                                                                                                ",
"                                                                                                                                                                                                                                                                ",
"                                                                                                                                                                                                                                                                ",
"                                                                                                                                                                                                                                                                ",
"                                                                                                                                                                                                                                                                ",
"                                                                                                                                                                                                                                                                ",
"                                                                                                                                                                                                                                                                "
};
