/* XPM */
static char *_e09594071354b76a0339107ec8ed7fcvXLZJYIzvl3GcdGB[] = {
/* columns rows colors chars-per-pixel */
"32 32 150 2 ",
"   c None",
".  c #020103",
"X  c #0C0506",
"o  c #06020A",
"O  c #0E050C",
"+  c #110707",
"@  c #1C0607",
"#  c #12070A",
"$  c #1C0709",
"%  c #120B0B",
"&  c #0D0313",
"*  c #0F0819",
"=  c #140713",
"-  c #120812",
";  c #1C0817",
":  c #15051B",
">  c #18071C",
",  c #170818",
"<  c #19091D",
"1  c #191316",
"2  c #1D161A",
"3  c #250306",
"4  c #2F0207",
"5  c #230709",
"6  c #2B060A",
"7  c #340409",
"8  c #3B050B",
"9  c #240513",
"0  c #280712",
"q  c #260817",
"w  c #280B10",
"e  c #260818",
"r  c #2B081C",
"t  c #310716",
"y  c #3B0712",
"u  c #39071E",
"i  c #33081E",
"p  c #3C0C1C",
"a  c #221214",
"s  c #291419",
"d  c #221C1D",
"f  c #2A1A1C",
"g  c #050521",
"h  c #0C0A2F",
"j  c #180521",
"k  c #1E0924",
"l  c #1F0928",
"z  c #1C1024",
"x  c #210626",
"c  c #250924",
"v  c #2C0925",
"b  c #23062F",
"n  c #22082C",
"m  c #320920",
"M  c #3F0926",
"N  c #390A2D",
"B  c #261B24",
"V  c #3A1D2B",
"C  c #270A33",
"Z  c #2B0B35",
"A  c #2D0D3A",
"S  c #3F0C36",
"D  c #300E3F",
"F  c #3B0C39",
"G  c #262424",
"H  c #2C282A",
"J  c #3E2425",
"K  c #312C2E",
"L  c #292732",
"P  c #332F35",
"I  c #353233",
"U  c #393638",
"Y  c #3B3A3B",
"T  c #42030C",
"R  c #4F050F",
"E  c #53050F",
"W  c #430619",
"Q  c #4B0619",
"!  c #570512",
"~  c #51071F",
"^  c #430721",
"/  c #4D0722",
"(  c #410927",
")  c #4D0827",
"_  c #41092D",
"`  c #510721",
"'  c #421421",
"]  c #4C3239",
"[  c #52393C",
"{  c #633538",
"}  c #663B3E",
"|  c #300B40",
" . c #361D44",
".. c #3F3D44",
"X. c #333249",
"o. c #482A43",
"O. c #453444",
"+. c #483D4E",
"@. c #5B3A41",
"#. c #5C3C49",
"$. c #403452",
"%. c #4C3D55",
"&. c #673E41",
"*. c gray28",
"=. c #444348",
"-. c gray30",
";. c #504F4F",
":. c #4C4054",
">. c #514A56",
",. c #52455A",
"<. c #555455",
"1. c #595659",
"2. c #5C5B5B",
"3. c #714F51",
"4. c #6C5055",
"5. c #665E5F",
"6. c #715052",
"7. c #73595B",
"8. c #594F61",
"9. c #5C5462",
"0. c #685A66",
"q. c #645B69",
"w. c #7B5F61",
"e. c #646363",
"r. c #6D6469",
"t. c #6F6F6F",
"y. c #74656A",
"u. c #6C6472",
"i. c #6F6973",
"p. c #716B75",
"a. c #746D79",
"s. c #737273",
"d. c #77717C",
"f. c #7A757D",
"g. c #7B7A7D",
"h. c #826F73",
"j. c #7C7681",
"k. c #7F7983",
"l. c #827E86",
"z. c gray52",
"x. c #86818A",
"c. c #8A868E",
"v. c #8E8D8E",
"b. c #8D8991",
"n. c #938F97",
"m. c #959396",
"M. c #969399",
"N. c #9A969C",
"B. c #9E9BA1",
"V. c #A7A4AA",
/* pixels */
"                      <.e.                                      ",
"                      k 2 + X                   .               ",
"                          G % .     q.            .             ",
"                D D         ;.# - 1.N.            .             ",
"          < n                 d , o Y             .             ",
"        . < + # . t.        a.  . + X N.a.      . .             ",
"  D D j . b.2.1 + X +.j.s.   .B.  . + +.f.      . n             ",
"  D         A n.<.o + A 7.y.    D . X I u.o.6.  , j             ",
"                    I < / 0.g.  ( 5 X C |   _ v r C             ",
"        D w.w.&.} #.i.+ ,.` 4.  u ; + l | !   5 W           e.  ",
"            b.l.v.l.p.+ d T 0 O % 5 + n F ! + O.i.          .   ",
"        b.6.! R E [ { p + E 8 7 = + + X ) 6 Y h.| | |     . .   ",
"      A : . # = + + $ 6 o G . o # % l 9 r y [ D | |     ...     ",
"    A l o A , Y H X + + f ] :.= 1 k A $ $ ^ .     q.  t..       ",
"  D n + <.9.        >.< % u + w =.$.m 6 3   :.l.N.y.[ <         ",
"    n j       b.1.d + 7 @ + - % 6 ' a Q ! F     ~ < < x `       ",
"  D Z D   |   I % + + + X % - L X...C | ! ! M q X $ 0 ! h.      ",
"  D ,   |   g.J > . x O + 7 g # * = = j = + + s V 5.  N.|       ",
"    .     2.r.c = V.D + X # 3 h # r e l k = o       %.          ",
"          s.6 k     A > X + + d + 8 y B ,.    D D               ",
"        <.8 < 2.B.  Z c : D + G X + $ g.+ U   D           . . . ",
"        K @ ,   c.l._ i < N B d.. A ; + 5 <.v.v.v.v.v.z.. .     ",
"        @ $ 9.      Q 7 X 8 K j.  n A l @ 7 7 *.*.Y Y . .       ",
"        @ + -.    x.x.8 $ i f   d.    D : 7 4 . . .             ",
"        5 5   l.    q.7.y ,         b.j.j.| D D D D             ",
"        6 @   D |   | N.z.C . D     A 9.j.m.j.j.D               ",
"        @ +             m.q.l A                                 ",
"        ! +               f...n D |                             ",
"          !                   Y & A                             ",
"                                  . . . .                       ",
"                                                                ",
"                                                                "
};
