/* XPM */
static char *_f6de032ce16407cc0102c88900d0ce3p2wMmN2VWtZ0TolK[] = {
/* columns rows colors chars-per-pixel */
"32 32 9 1 ",
"  c None",
". c #004400",
"X c #008800",
"o c #00CC00",
"O c green",
"+ c #44FF44",
"@ c #88FF88",
"# c #CCFFCC",
"$ c white",
/* pixels */
"                                ",
"                                ",
"                                ",
"                                ",
"                                ",
"                                ",
"                                ",
"                                ",
"               ..               ",
"              .OO.              ",
"             .O@OO.             ",
"            .O@#OOO.            ",
"           .O@##OOOO.           ",
"           .@##$+OOO.           ",
"           .##$$#+OO.           ",
"           .OOOOOOOO.           ",
"           .oooooooo.           ",
"           .ooooXXXo.           ",
"           .ooooXXXO.           ",
"            .oooXXO.            ",
"             .ooXO.             ",
"              .oo.              ",
"               ..               ",
"                                ",
"                                ",
"                                ",
"                                ",
"                                ",
"                                ",
"                                ",
"                                ",
"                                "
};
