/* XPM */
static char *_a92733e10fa4b7bd9423829b2ad8a6dXC5ZwPXBnjL7gQ0o[] = {
/* columns rows colors chars-per-pixel */
"512 32 35 1 ",
"  c None",
". c #3A3631",
"X c #3B3631",
"o c #3B3731",
"O c #3B3732",
"+ c #3C3732",
"@ c #3C3832",
"# c #3E3933",
"$ c #3F3A33",
"% c #403A33",
"& c #403B34",
"* c #423C34",
"= c #423C35",
"- c #423D35",
"; c #433D35",
": c #433E35",
"> c #443E35",
", c #443E36",
"< c #453F36",
"1 c #454036",
"2 c #464137",
"3 c #474237",
"4 c #4C483A",
"5 c #4F4A3C",
"6 c #4F4B3C",
"7 c #504B3C",
"8 c #514C3D",
"9 c #575341",
"0 c #585341",
"q c #585441",
"w c #595441",
"e c #595442",
"r c #595542",
"t c #5A5642",
"y c #5B5743",
/* pixels */
"   ...                             .>...;o;..;;;;;.;;...=.;...                                                                                                                                     ...;;;;.;..;;;;;;;;.;;;.;.;;;                                ;.;.;...;.=..;;;;;.;;...;.;...     @;...;.;..;;;;;.;;...=.;...                                  ;.;.;...;.=..;;;;=.;=...;.;...=;    ..>t>.;;;=....;..;;;;;;;;..;                                ;;.;;;,;;;;;;.>;;.;;;;O;....    ;;;...;;;;.;..;;;;;;;;.;;;O;.*;;",
"   @;...             ...          .2t1.......;.;=O;............              ....          @..                                   ...       ....     ..                          ....               @;...;.;..;;;;=.=;O..;.;..O;;    ..          ......          .;@>y>.......;.=;O*............   .>t>@......;O*;.*............     ..OO     ....          @..  .;@>y>.......;.=;.;............;    ..>tt;.;;..=.;;.;.;;;;;@..;.                                ;...;tt;;;;;;.>,;;O9>O*.;.*.    ;@;o;...;.;..;;;;=.=;O..;.*..O;;",
"  .>t>@......      .....   ...   .;tye>;;..=;.;..;.@;;;.....=;.           ....;;;.       .@9>>.                  .....          ..;..    ......@.  .;;O                    o....o......     ..    .>y>@......;.;;o;.O..........;  .O;;.......  .........        .o>tye,;;..;;o;.O*O.;;;.....;;.  .>tye>>=..=;.*OO*OO;;;.....;;.    .O;9;O.O..O;;;.       .@9,;. ..>yye,;;..;;o;.@;@.;;;.....;;..   ..;t>>;....;;;.;.o;.;=.@9>>o;   .....          ....    ..    ..;..>>;=....+tt1;OO;;..;;O..   .;o>e>o......;.;;.;.O..........;",
" .>tyt>;;..;;.    ..;;;....O;;.  .>yt2e>;;.=;....O>>t>;;;.;;;..          ....;;t>@   ....;;2tt1.         ...............        ..=;;. ..=;;O.;9;O O;;;.                  .@=...o+o=>>@o...=;=.. .>tyt>;;..;;.;..*oo;;;.....=;....O;;;>;;..;.....;.;;;..        ;.>ty29,;;.;=oo..O>>t;;;;.;;>..  .>tt2t>;;.;=.O..@*1t>;;;.;;;.. .  .;;;;;....;;t1..  ....;;,yt>@;.>ty29,;;.;=oo...>>t;;;;.;;;O.=   ..;,;;....;;y2........;;2yy>.  .....@..      ..........;...  ..;;;.;@.;>;..>9*o*.;;;.;>*o..  ..>tyy,>;..;;.;..;@.;;;.....;;..",
" .>yt2e;;;.;;....@;>t>;;;.=;;..  @92e>>;;;..o;;=.;ett>>;;.;;;.         ....=>;>tt>. ..;;;;,ytyy;         .O;.....;.;;=..        ...;;;..;>;;;..;;..;.;;.                 .@>;@....o>>>>@@;;;;;@o .>yt2e;;;.;;....o>>t>;;;.;;;.O;;;;>91t1..;;;.....;;>;;.        ;+92y;,;;;...;;=O;ttt>;;;.;;=.   @92e,,;;;...;;;o*ttt;;;;.=;=.  ....;;*O..O*;;>tt>. .O;;;;>yttt*;+92y;,;;;...;;=O;ttt>;;;.;;=.;;  ..;;;....;;;>tt>....;;;;;ytye;...O;;19;.     ..*...;...;.;O......;;;..;;;;;..>;.O;.;;O91t;..  ;.>yy2e;;;.;;.....;>t>;;;.;;;.O;",
" O92e>>;;;...=;=O;ett>;;;.=;=.    @;,;;;;;;...;;.;>y29>;;=.;.          ..=>;;;;t19@..=O;;;;,2e>@        ..;;;.....;;>;;.        ;..;;...;9;;.;...;;;.;..                .ooo..@>=o>=7t7o..=>;55, O92e;,;;;...;;=.>ety>;;;.=;=.;;;;;;1et*...O..==.=;>te;...      ;;@;,;;;;;;..o==O;>t1t>;;;.=.     O;;;;;;;;...=;O;>t19>;;;.;.   ...;;;;..;;;;;>t19@.O*.;;;;>1t1O;;@;,;;;;;;..o==.;>t1t>;;;.;o>t>  .;O;;..;>;;;>t29@..;.;;;;,2e>..;.>91t1O.    ....;;>>;..;;;;;O.=..;;...;9;;+;...;;;O;..1t2;..  ;O92e;,;;;...;;=O>ett>;;;.=;=.;;",
"  +;,;;;;;;...;;O;1t2e;;;;@;.     .;;;;;+;=......O;,t,;;;;..          ..;o;;;;;>>;..;.;.;;;>9,..        ......==.;;>tt;...      .....;=..@;;;...;;;......              ...o@@o@>=.==77=..+..@>7y  +;,;;;;;;...;;@;>t2e;;;;O;@;9>;;;>t>O...O*..;;.@;>t1O.....    ;;.;;;;;.;;.......;1t>;;;;..      .;;;;;.;;.....oo*1t>>;;;..    ;.;;;;O.*O;;;;;*>;..*@*.;;;>91..;;.;;;;;.;;.......;1t>;;;;..;>e>   .;;..;.;;;;;>;>..;.;o;;;,t>@...;;1tt*.........;;;tt;...;;>t,,.....;=.OO;;;O..;;;O....@tt>..  ;;@>,;;;;;;...;;O;1t2e;;;;O;@;9>",
"  .=;;;;.=;......O;>t>;;;=..       .;;;;=...>;....;;;;;;;O...         ..o=;;;;o..@.....;;;;;>;..      .....;..;;.@=;e>......    ;..=;;;=..O;;....;..;....          .....=@@%=@.=o..o@=o@@@@+@>77  .=;;;;.=;...OO;;;>e>;;;=..;;t>*O.OO....O*O*..;....*O.;.;@..   ;;;.;;;;;.O@;;..;.;;;;;*=....      .;;;;;OOO;;....;;>;;;;....   ;;;;;;..O*;;;;.O@......;;;;;>;..;;;.;;;;;..O;;....;;;;;;=....>;;   ......=;;;;.........;;;;;>;...=;>91O...O*O.;;..=;e1O....O;>9t;..=;;;=.O.=;....;..;O...;>9..  ;;.=;;;;.=;......O;>t>;;;=..;;t>",
"   .;;;;;..@;;....=;>>;>=...       .;;o;...;e>;....;;.;...>;.      .....=o=>=oo=;;;.....=o;;;;.;   .....*.;.;..;..@.;..=O*..    ...;;;;;o=.o..o=..;;;;.;...       @;==.o.@>=>==..@>@o.@=@%=oo@==   .;;;;;..@;;;;.;;;>;;*=.O.O;;;O*O;;....=O;.....==...;.;.;..   ;;;.;;.;..;9t,;.*.O*;.*O.O;;O      .;;.;..>tt;;...o==o;...;;O   ;;;.....;.;;;..;;;;....O;.;;;;.;;;;.;;o;...>y>;....;=.;...;;.;;;   .....;.;;;..;;;;.....=O;;;;.;*O.OO...;.;@;..;...@;..*.*o.;,e2...;;;;;O;....O;.O;;;;.;...;.   ;;=.;;;;;..@;;....;;>;;*=.O.O;;;",
"   .;;.;...>e>;O...;=.;...;;O      .=O;...Otyy,;;....;.;.@9;;.     ..;>.o=.=..=>;;;;;...o=;>=o..  .;;....;;;;;O..=;...;O;@;..   ..;;;>;;=o.=..==.;;;;;;......     =;=>+o=>===>>@.@>>@.o@>>=%...=   .;;.;...>9t>;;.;;;O;o..;;O;;;;@*;;;.O;O=;;;;..;;;...;;;>...  ;;..=@*O.@;>t;;OO..oO*o*.O9;;.     .;.;...;>t;;....oo;.=..9,;.  ;;=.O;;O.;.;...;>tt>.....;;;;...;;..=.;....tye,;;....*O*.O9>;.;;   ..;;..;.;..;;;;;;;....=;>=...O*o**o...;;;;;O..;;...*@;o;..;;...;;;>;;;O....=;O;;;;;;......   ;;;.;;.;...>e>;O...;;O;O..;;O;;;",
"   .;.;...@tyt>;;....;.;.@9>;.     ..;...@>yy,;;;.......O;>;;.    ..;;e>o.....=;;;;,y>@..==....= .;;;;..;;;;;;;..=;=...;;;;...  ..>>,e>;o=o=..=o;;;;;;;;..;..     %>=..@=>=>>>>>=.%>=.+=>==>oo@>  ..*O*O..;>tt1;;=O;.*o*.O9>*O;;;;;;...*;;;;;;;=..==..=;;;;=..  ;.*..*..;;.;;;.;;.==.O..O;;;;.     ..;@....;>;.;=o==.o..@;;;;.  .;O.;;t>......;.;19@..;;.;;....;=.;..;...O1tt2;;;.......O;;;;.;;  ..;>e>......;;;;;,y>...;=....;;O;;;*.O;;;;;;;O.;;;...;;;;....=..;;>t1;.*....=.;;;;;;;;@.      ;;..*O*...@tye,;;....*.*.O9>*O;;",
"    O*....;t>>;;.........;>;;.      ..;..;ty29>;;;;..;;.;;;;;..   ..;>te>......=;;,etty;o...=;.. .==OO.;;;;>;;;;..=;..;;;;;=..  ;.;ty2t;=o....=o;t19;;;.;.;;.     .o@=@.@>>777t5@......==>===oo=  ..o*O.;;.;;>t>;.*O.....;>;;O;;;9OO;=.O;;;;,;;;@......;;;;;..  .*@...;.....O@O...=;O**O;;;;;.      ..;.....O@OOoo==o=;.;;;;;.  ;;..;;t9;......;;;@..;19O...==...;o...;..>tt2e,;;;;.....;;;;;@;;  ...;tt;......;;;;etyy;....;=..;;;;Oo.;;;;;;;;;..==..;;;;;;..;;;.;tt19;;.....;.;t29;;;.*.      ;.;.O*O..@>ty2;;;....O...;>;;O;;",
"     .;..;;>;;;=o;;..==.;;;;;.       ...O;>t;>;;;;;.....;=O;...   ..=>>>o.==...o;;;,,tyy>...;=..  .O;;..;;;t2tt;.......;;;;;..  ;.o>ye>>=.......1t92;;;;..=..     o@+====>=>7t7;@@......=>=>==.=  ....*....;;;;O.;.;.O*O;;;;;o*;;OO*.;;O=;;>92;;*;@*....=;;;=.. .........;@.1t9;;;O.....;;.;O.       ....;@O;tt;>=......=;o;..  ....;;;;O.;;.....O;;O>tt;O.O;;...........;,e;,;;;;;.....;;.;..;;  ...;>>OO;=.;..;;;,2tyy>...=;..;9OO=;O.;;;91te;......@*;;;;..;;;..1tt;;;.......;tt2;;;;..      .;@...;..;tt1e;;;;;..==.;;;;;o*;",
"     ....;;;;;>o>e;.....=;.;..      .@..;;;;;;;;;;;.......*O...   ..o=;=o=>=...=;;;,92e>;..;o.;;    .;;.;;;2y91;........;;;;;.. .;o>e,>=o..=;=..;>tt;;;O.....    @>=o+>=+@>5y7>@.....=@..@>>>;@. ............;O*.o.=.;;.;;O*O.;;O;;OO;e>.;;;,ty>>.*.;>;..;,>,;..;;;..O..;ttO;tt1;;;.......;..@.    ..@..;t9O;tt1;;=.......;..@. .....;;;O;;=....;>9tO;;;;.O;..;;;;;..@..;;;,;;;;;;;.......;..@.@  ...;;;.;;;.=.;;;;,t2e>;.o=.o=>;OO;.;;.=;;2tt>;..;;....=;;;;o.=.;o>t1;;...;;;..;19t;;=@..      ........O;>t>;;;;;;.....;;O*O.;;",
"   .....;;;;;>=o;;O.......;...    ..19;O;;;;;;;;.;..;;;....O;..   ..=o=o.==o...o;;;;,;>;..;;o;.;   ..;;;.;;t92;O.....;;..;;>>;. =.;o;;o...o>;;;.O;191;..;=...    =>>>=@=.o@>>>=.@%..+=@>@+7tt7>@ .;.....;;;O....@;;..OO...*oO@Oo;;;;;O;...=,tyye>.@;;;>;o>ety,=..;.@19;O;t1;O;19;;O.;@;.....>9;.  .O19;.;t;;O;19>=o.;=;.....19;.;;..*.;..;=.....;>ty@O;;O.;;O*O;.;.o>9;@;;;;;;;=O*O.;=;.....>9>;   .;.;..;;.....;;;;,;>;..=;.;+;O;;O.;;;.;,yt>;o....@;=..>>>>;..;.;.*;....O;;;;.O;>t>;..;..     ;;=.....;;;;;;;;;;=.......*oO@Oo",
"  .@1e>O;;;=.o..O;..=;;.....     .;>t2>.;;;;;;;.;.....==...;9O     ...o........=O;;;;;>...==..;;  .;;O;...;;;;..;.;.;;;;.>ett>. ;;.......==>;>o=OO;;;O.;;;...    @7t7@.o@==oo..@;;==@=;>==>77==..;.@1e>O;t>;;.;;t>>>.;*....o19;*;;tt;...;=+>9tt2;..*;tt;o>2e>;...O;>t1;O;;;;O;;>;O..O@;;...;tt;. .;,t2;.;1;;O;;;;o..o.==...;tt>.;;O............;;t>;O;O...;$.O;;.@;>t2;.;;;;;;=O*O....;;...;tt>;   ............;O;;;;;;...=;..=;;;;;;.;...;;>;.o%@;.*;;=o>ete>;.;;o.O....;;;;;.*O.;;;..=;...    .;..1e>O;;;;;;;;.;..=;;....o19;*",
"..;>t1;O;;OO;;;.....OO;;...      .>tte>.;;;;.;.;OO;;;;...;O;;.     ...;;;..;;;.O;.;;;;;...oO.O;;  O9;...==.....;.;;;;;;;.>2t>;. ;=..==...;;;;;=O%............    @77=....===o.==77;=@;55=o77@o=@..;>e2>o;tt;*..;2tt9>+=;...;tt;;*;91o....*;.>>>t;;.;;>t;O>e1@.;..;;ttt;.*;.;...;..;;;;O..;.;;>;. .>ete>o=;.;...=..;>;;...;.;;;;.;>t@..;;=.O*;;.O;>;;.;....o...=;.;;tty;.;;;;.;.;.@;;;;O..;.;;>;;    ...;;.O;;;OO=.;;;;=.......;;;;tt;...;=.....*O=;;;;;;.;1t1;O.;=o.==...;;;;;=O=............   ..;>e2>o;;;;;;;.*...OO;;...;tt;;",
".=,ytt>.;*O;t>;*.O;*;;O..;.      .;>>;;..;;.....O;;tt;;.;;;..      ...==O.;;t1;..;;;;.....;;.;.; ..;O....;;;..;.;;;;;;;;O;91..  ;+=o>=..;>;,;;;=O....;*..;.;..    +o.@@.....o@=>>7y7=4t5o.o+.==>.=,yte>o;>;;;@.>eyyt,=...;O;;;;;oO@Oo*...OO..;;@....O;;;.....;. ..;>;>;@.O*@....O;;tt;;O=;;..;;. .;>>>>..@*.....o;>ty,;.;;;.O;;.;>9O..;*..;;y>;..=;;oo....;>.;.;..;;;,>..;=......;;tt;;O;;;..;;@     ..;..;;t1;..;;;>.....;;.;.;;;91O....;;;..;o=;;;;;;;@;91..;.>o=o>=..;>;,;;;;....@;=..=.;.   .=,yte>o;;;;.;.*.@;>;;...;O;;;;;",
"..;>;>;....;;;*@O;1t9;;.;;=..    ..;;;;;........;19t1;;;.;;.       ......;;>ty;;.O;;;...=;>e>@;. ...O*.......;;;;;;;;;;;..@.    >=oo=o.;,92t,;;;;...;;*O;;=...    oo=@=;+..ooo===7t7@o=@.......o..;,>,;..;>;.*.>>yt,;;;.>e;OO;;O;;.O*O;;.;;.=.o.*O;............ ;..*;;;;........*>tt2;;;@;>.;O.  .o;;;;=........;,tt2;;=.;;.;O. ;;;.....O;;;9t1;..=.;=.o;;>e>@;.;..;;;;=....;;..;>tt1;;;@*;.*O@1      ..O;;;9t1;..;;;...;>,e>o;.OOO.O*O......;;;;;;;>;;=..O..;;;;=oo;..;>e29,;;;;.;.=;=.;;;...  ..;,>>;..;;......;1t9,;.;;=.O;;O",
" ..=;;;;....==..;1t92;;;.;;.;.    ..;;;;;.......;9t2t>;;..;;O.     ..;..;;;;29y;.......;;>tt1..; ...;O=;.....;;;;;>;t>;O...     .o==...>yyt2,;;;....=;OO>>;;..     @;;;;=+=+@>+oooo+o..o.=@o..++ ..=;;;=....*@;*;;29>;;=O;;.*OO;;*o;;;;;O*O.;.;.O;;;;....*....  ;;.O;;;;;.......>tt19;;;..;;..    ..;;;;;.......;9t29;;;.O;=..  ;;;.O;.O;;;;2tt;....==.=>>tt1..=;=.@;;;;;.......;tt19;;;..;;O@81      ..;;;;2tt>.......=;>yt>..;;;..*O*;.....;;;;;,;y>>o......O...==...;eyt2,;;;..;.=;@.>>;...  ;..=;;;=........;;tt2;;;.;;.*OO;",
"  ..;;;;;.......;991t;;;@.=;..    ..=;;;;;..;=..;;;;>;;;;.OO==.    .;;.;.;;;t1t;.=.....;>t2yt;.= ..;;;;;.;;..;;;;>92yt;..;..    ..==...o>yyte;;;;......;tt;;..     @;;;@....@==@=@=>>=o=@o=oo@=@  ..;;;;;......@;;;,;;;;O.=;OO9;;;O;;>;.....O*.;>t>;;.;;.O*o..  ;;..=;;;;;..=;..;,;;;;;;;...=;.   ..;;;;;;..==..;,;;,;;;;.O.;;. ;;;O;;.;O;;;91t;@;.....;>t2tt;.;;;..=;;;;=..==..;,;;>;;;;...=;;;      .;.;;;91t;.;.....;;e2yt;.;;;.;;;;;.....;;;;,e2tt>..;....;...=;....1tttt>;;;......;tt*...  ;=..;;;;;.......;tt19;;;O.=;OO9;",
"  ..;;;;;;..==@.;1;;1;;;;...;.    ...;;;;...=;=.O;;;;;;;..;*;;.    ..;..=;;;;;;;.;..=.;.>>9>;;..  .;;>;O.......;;;,yy>@...;..   =..oo==...>y,;;;;;......>e>=..     =;54@=oo%o...o@=77>=..@@==o@;  ..=;;;;=..==..=;;;;;;;*...;;;;;;O*>9O.*o*.;O=;;1tt>;..O*O*..  ;....;;;*O..=;;..;;;;;;;..;;;;.   ...;;;;...;;;..;;;;;;;..;;;;. ;;...;..;;;;>;;;.;..;.;o;>t>;;..=o...>;;;...=;;..;;;;;;;@.;;;;@;      ..;;;;;;>;.;....=o;>t,>>..;;O;;,;........;;;,tt>....*@.;.;=...@;;..@>t>;;;;;......>t>;..  ;;..=;;;;=..==..;;;;>;;;*...*;1;",
" ....;;;;...;;;.O*;;;;;;..;;;..    ..;@;O;...;=..O;;;;*O..O*;.     ......;;;;;;.;;..;..;;;>;;;..  .;;9@.;.;....;;,yytO...;O=.   o..=>;=....>;;;;;*..;.*.O;;..      .@>%.o%=@>=.o=o>7y7o.%%@>@@;;  ...>;;;...;;;..;;;;=O;O.;;;*@;;;;O;;..o;O;;;.;;>t9>...;.;;.   .;;..;o;O*...;;..O;;;;;....=;=.   ...;o;@*..O;;..O;;;;=....;;;. OO.......;;;;;;O=;..;..;;;;;;;..O;;..=o=.;...;=..O;;;;;....;=.;.   ......;;;;;;.;;.....;;;>;;;..;;.;,9O.%.*....;;,yyt@...;.;..;;...;;;=...O;;;;;;;..;.;.O;;O.   ;O...>;;;...;;;..;;;;;;;O.;;;*O;",
".=;@.;.;.*...==..O;;;;;....=;..     ..*O=..;.@..;OO;O*O*.....        ...;.;;;;..;.....;.;;;;;...   .;>...;.;;....;>e;...;o;;.   =o=;;;O=.....;;;;O.;;;O;.....       o.@@>==>>==@+o@==oo@=>>=%=;>   ..;.;.;...==.....;O=....;;O*O;;;O.O.=*;;>;;;.;;;;@..;;;;;.   >t>=..;.*OO;....;O.;.;.;......    .;.o*.*..;....;..;@;.;...@..  ;;;;;...*O;;;;..=.....;.;;;;;...>t>=.o=o;@.>....;O.;.;.;...@...;   .;...;.;;;;..=.....;.;;;;;...;;;O;;..O;@;=....;>e>...;.;;.=;;;o=;;>.;O....;;;;..;;;.*.....   O;;..;o;.*...==..O;;;;;O...;;O*.",
".;;;..;.;OO1@@..;..;.;.;...@..      ......>e;=@.;;..*O....             ....;.O;....=;O..;;;;;..;   ...O;;;;;;;....;>...=;;;;.   ..;;;;;;;.....o..O;;;;=...          ..@;;;>77>=.o....+>=@>=>;@=>   ..@;.;.O*....;..*O*O....OO.O*>t;;..=;;;>e>;;;OO...;=.;;;;=.  yy>;.....O1t;;..;=..;.....       .;;O....O1t;;..;;.O*O...@>9;.  ;;;;t>;....;..;....;;...;;;;;..;yy>;......1t>;..;=..;....O19;;;O  .@9>>...O;.O;....;;...;;;;;..;;,;....;;;;;;;....;;O..;;;;;.;;;..>>;;;;=......O..;;;;;......   1t>;..;.*Oo1@@..;..;O*O;....@..;",
".;,;.....O18>>@.;;..*O...@>9>;.       ...;tt>;;.==......               ......=;;...=;;O.O;;.....    ..;;;;,t,;O......=;+;;;;;.  .@>t,;;;o;.;..>;>*;;;;.;..          =@%>;;5777;o%==.oo>=>==>>%@>    .....O1t>;@.;;..*O...O>t>;;;>9;@;O;;;;e2t>;@;;...;;;;;;,;+  ;,9,;=...;et;;;.;=......         @9;;;O..;t9;;;.;*..O...;te2;;. ;;;;>ty.....O;;;...;;;O..==.....;,9,;=o..>et;;;.........>tt1;;..  ..>ty@.....;;;...;;;@..=;.....;9,;..;;;>,t>;O......;;.;;;;;.;;..>e,;;;O=.=..>;>;;;;;O=..;;.   9t1;.....O18>>@.;;..*O...O>t>;;;",
" @9>;;O..;et>;=.==..@...;te1;;.         .;;>;;.....;;;..                ..;.;;;O..*.;>9;...;;..;   .;.=;;>92y>;.;;...;;;;;;,;@  .>t2,;;;;.;..@92t>;;;>;..          %;;@=;;>7tt7@o==+..==>>>7774=      ...;et>;=.==..O...*te1;;;;;;.=;=.;;;>yte>.=;;...;;;,>e29O .O;;;;;;.;;;;;O....;;;..         .;;;;;;O;>;;;.....*;;.O>t1t>;. .;;;;2e>.O;.;;;...;.;19;...;;..;.@;;;;;..;;>>;....    ..>t2e;O;.  ..;2e>..;.;;;...;.;,9;...;;..;,t>.;.;;;,92t>;.;=...;;;;;;;;+;;.>t2;;;;;.;..@e1t>;;;;;..=;.;.  ;2e;;=@..;tt>;=.;=..O...*tt1;;;;",
" .;;;;;;.;;>>;.....=;;.O1t>t;;.         ..=;;.;.....;O.                 .;>.;O.;;@.;;;;;..;;;...  .;;;.;;>>tte;.=;;o..;;;>>e29@ ;eyty;;;;;.. .>tt>;;=o...         .%;>%@;;;77>=.o..===o>=777t7%@        .;;>;;.....;;;..1t19>;;;;O.;;;.;;;>t>>o....;;.;;;e2ty>. ...;;.....;;;.;.....;..          .O;;;;;.O;;;.;....O*O.;t>;;;.. ;O.;;t29@;;.;..;;..;;;;;..;;;.......;.;..o=...;..     .;9>;;....  ..;929.;;.;..;;..;;;,;..;;;...;>o=;;.;;;>ttt>o=;;...;;;,,e29@;>eyty,;;;;o...>tt>;;;....;;;O.  ..;;;;;;.;;;>;.....;;*.O1t19>;;;",
"  .;;;;;..;;;.;.....;..;92;;;O          ...............                 .;;=. .;9;.O;;;.. .;;;.. ..;;;.;;;>t>>O....;=.;;>e2ty>. @>tt2;;....   .1t>;....           @;=....@;;@o@%o+@==@.o>=7yy7@.        ..;;;.;.....;..;;>;;;O....;=.....;;;oo*..;.;;..;;>tyt>.   ...    .............            ...;;;.........O.....;;;;;..  ...O;;;>.;;;.;.>t>..;;;.. .;;=..  ...;..........      ..@.....    ..O;;>O;;;.;O>t>..;;;..;O;;=..;.@;;;.;;;,e1>o....=;.;;,t2tt1.;O,yt2;;.......@>e;;....;>,;O.   ...;;;;;..;;;O*....O;..;t1;;;O..",
"   ..............   ...O;;;;..            .....                          .=;.  .@......    ..=.. .;=.....;;;@.;..;.;=..;;>eyt;.  .>>9@.       .;;;....            .....@.o..o%=@==o=oo..ooo74==@        .........  .......;;O.  ;..........O.;o;;.;......@>t>.              .....                   .O;;;;.....O9t;;;..;;;;O.      ..;;..;;;..;>tt@....    ..;..    ..    ....          .....      ..O;;..;;@.;;t9@....;;,;..;....;=.....;;;..;.O;.;=..=>,eyt>..;@>>e..;;o;..=.;,;....;;>e;..   ;;...;;;.........@.....;;;;;..@.",
"    ..    ...          .....                                              ..     ....       ...  ............;O=;.;.......1t2.    ..@          ....                ..=@@=..==%%;>=>o.o===..==%%%          ......          ..    ;;O..;.;..O;=.=;;;;..;.;...;@                                       ...;;;;;..;;>>;;;;O;;;;..       ...  ... .=;;;.         ...                                     .;O;.;@>9@;;>>O;;;;;,tt;...;=............;.;;.;......o>e>o;..;...;;;;=.;.;=o=..;;.;ty,..    ;;;=@.=;;;.....O9t>;;..;;;;O.O9>",
"                                                                                                  ...;.=...;;.;;;;;..;o;...>.                                      .@@%;;@@>>=;;=>=.+=@>==oo.@>=                                ;;;.;.;;;.;;;;;;;;..;.;;;;...                                      ...;;;;.;..;;;;;;;;O;;;.;.                 ....                                                  ....;.;;;;O;;;.;;;;;;;>;;.=;;=...;.;...;;.;;;>;..;.;..o>o=.;;..;>;;;;;;..;....;;;=@,t;..    ;;;;;..;;;;;..;;;>;;;;.;;;;..;>;"
};
