/* XPM */
static char *e9c6d1ecd3074c80a99f55247e27b1d4SJmHPAFwhv3V7QG7[] = {
/* columns rows colors chars-per-pixel */
"32 32 4 1 ",
"  c #2A3C79",
". c #34499E",
"X c #4E78E8",
"o c #B7D7FF",
/* pixels */
"..    ..X...  Xo..X.. .   .oX..X",
"X....XXX. ..  .XoX.. ..  ..X....",
".X.XX... ...  .XX......  .X..  .",
" .X.........  .X......   .X.  ..",
" .X..  .....  .X.. ..   ..X.  ..",
"  oX..  ..   .XoX..   ...Xo.  ..",
"  .oX..     .X...X.....XXoo.  ..",
"  .X.X..  ..X.. ..XXoXX..Xo.   .",
" ..X..XX..XX.. ....oX.....X..   ",
" ..X....XXooX..  ..X..  ..oX.   ",
"..X..  ...X..X... .X.  ...oX..  ",
".X..    ..X...XX...X.. ...X.X...",
"X..   ...X......XXXoX.  ..X..X.X",
"o..  ....X..   ....XX.. ..X...Xo",
"Xo..  ....X.  .  ...X....X.. ..X",
".XX..   ..X.. ...  ..X..X..  .X.",
"  .X.....X.X.. ...  ..oX..  ...X",
".  .X...X. .X...   ...X..  ....X",
".  .oX..X.  .XX.. ..Xo..   ....X",
"  .oooXXo.   ..X...X..X..   ..X ",
" .XXo...Xo.    .X.X.. .X.  ..Xo.",
"..X..  ..X. .. .oX... .X....X.X.",
".X.     .X. ....oX..  .X..XX..X.",
"X.  ......X..XXXX..   .XoX....X.",
"   .....XoX.X....XX...XoX..  ..X",
"  ... .X.XoX.     .XXXoX..  ..X ",
" ... .X...X.       ...X..  ..X. ",
"  . .X.. .X   ...   ..X.    .X..",
"   .X... .X.......  ..X....  X..",
"...X...  .oXX...... .XoXXX....oX",
"XXX...   .X..X. ....X.....XXX..o",
"....    .X. ..X.  .X..   ...oXXX"
};
